<svg xmlns="http://www.w3.org/2000/svg" xmlns:xlink="http://www.w3.org/1999/xlink" width="27" height="20" version="1.1" viewBox="0 0 27 20"><title>eye-slash</title><desc>Created with Sketch.</desc><defs><polygon id="view-eye-path-1" points="21.996 .818 23.41 2.232 5.732 19.91 4.318 18.496"/><mask id="eye-mask-2" width="20.092" height="20.092" x="-.5" y="-.5" maskContentUnits="userSpaceOnUse" maskUnits="objectBoundingBox"><rect width="20.092" height="20.092" x="3.818" y=".318" fill="#fff"/><use fill="#000" xlink:href="#view-eye-path-1"/></mask></defs><g id="eye-Page-1" fill="none" fill-rule="evenodd" stroke="none" stroke-width="1"><g id="Artboard" transform="translate(-505.000000, -163.000000)"><g id="eye-slash" transform="translate(505.000000, 163.000000)"><g id="eys-slash-group1" fill="#3A3A3A" transform="translate(0.000000, 1.000000)"><path id="Combined-Shape" d="M27,9 C23.9831661,3.54935292 19.0604961,0 13.5,0 C7.93950391,0 3.01683393,3.54935292 0,9 C3.01683393,14.4506471 7.93950391,18 13.5,18 C19.0604961,18 23.9831661,14.4506471 27,9 Z M13.5,15 C16.8137085,15 19.5,12.3137085 19.5,9 C19.5,5.6862915 16.8137085,3 13.5,3 C10.1862915,3 7.5,5.6862915 7.5,9 C7.5,12.3137085 10.1862915,15 13.5,15 Z"/><ellipse id="eye-boll" cx="13.5" cy="9" rx="3" ry="3"/></g><g id="eye-slash-border"><use fill="#3A3A3A" fill-rule="evenodd" xlink:href="#view-eye-path-1"/><use stroke="#FFF" stroke-width="1" mask="url(#eye-mask-2)" xlink:href="#view-eye-path-1"/></g></g></g></g></svg>